<?xml version="1.0" standalone="no"?>
<!DOCTYPE svg PUBLIC "-//W3C//DTD SVG 20010904//EN"
 "http://www.w3.org/TR/2001/REC-SVG-20010904/DTD/svg10.dtd">
<svg version="1.0" xmlns="http://www.w3.org/2000/svg"
 width="300.000000pt" height="300.000000pt" viewBox="0 0 300.000000 300.000000"
 preserveAspectRatio="xMidYMid meet">
<metadata>
Created by potrace 1.11, written by Peter Selinger 2001-2013
</metadata>
<g transform="translate(0.000000,300.000000) scale(0.100000,-0.100000)"
fill="#000000" stroke="none">
<path d="M1300 2447 c-315 -87 -541 -309 -636 -624 -24 -78 -27 -105 -27 -233
0 -129 3 -155 27 -235 29 -96 97 -233 146 -295 16 -21 30 -47 30 -58 0 -11
-16 -86 -35 -167 -20 -81 -33 -150 -31 -153 6 -5 25 2 199 75 122 51 128 53
156 38 110 -56 242 -86 387 -86 406 0 752 268 860 666 27 99 27 331 0 430 -81
301 -310 539 -611 635 -56 18 -101 23 -225 26 -139 4 -164 2 -240 -19z m70
-609 c-33 -58 -52 -146 -52 -243 -1 -79 3 -99 23 -136 20 -37 29 -44 54 -44
54 0 103 112 84 193 -10 43 -10 146 0 182 5 19 14 26 39 28 27 3 32 -1 39 -25
7 -29 8 -98 2 -218 -3 -60 0 -76 21 -115 21 -37 30 -45 54 -45 39 0 64 35 77
113 15 83 -1 214 -35 288 l-25 54 39 0 c47 0 61 -21 85 -122 39 -164 -3 -350
-87 -394 -61 -31 -137 11 -153 86 -10 47 -22 45 -46 -9 -26 -60 -46 -80 -90
-87 -38 -6 -88 20 -113 58 -22 34 -46 135 -46 193 0 64 23 172 49 230 19 43
22 45 60 45 l40 0 -19 -32z m-312 -107 c101 -71 93 -238 -13 -298 -78 -44
-185 -20 -235 54 -20 29 -25 49 -25 98 0 72 26 120 85 155 48 28 142 24 188
-9z m1106 6 c114 -64 112 -243 -4 -304 -156 -83 -318 78 -237 237 42 85 155
116 241 67z"/>
<path d="M2581 1694 c0 -11 3 -14 6 -6 3 7 2 16 -1 19 -3 4 -6 -2 -5 -13z"/>
<path d="M444 1570 c0 -58 1 -81 3 -52 2 28 2 76 0 105 -2 28 -3 5 -3 -53z"/>
<path d="M2583 1465 c0 -22 2 -30 4 -17 2 12 2 30 0 40 -3 9 -5 -1 -4 -23z"/>
<path d="M451 1424 c-2 -40 47 -211 81 -285 46 -99 118 -218 118 -194 0 10
-18 46 -40 80 -49 75 -105 202 -124 281 -8 33 -19 77 -24 99 -6 22 -10 30 -11
19z"/>
<path d="M2558 1346 c-73 -326 -332 -628 -641 -746 -145 -56 -237 -73 -397
-74 -157 0 -216 9 -352 55 l-86 29 -273 -115 c-150 -63 -275 -118 -278 -120
-2 -3 -1 -8 2 -11 3 -4 125 43 270 105 145 61 271 111 280 111 9 0 50 -11 90
-25 389 -130 819 -28 1107 264 94 95 151 175 210 296 39 80 94 262 88 291 -2
9 -11 -18 -20 -60z"/>
</g>
</svg>
