<?xml version="1.0" standalone="no"?>
<!DOCTYPE svg PUBLIC "-//W3C//DTD SVG 20010904//EN"
 "http://www.w3.org/TR/2001/REC-SVG-20010904/DTD/svg10.dtd">
<svg version="1.0" xmlns="http://www.w3.org/2000/svg"
 width="240.000000pt" height="240.000000pt" viewBox="0 0 240.000000 240.000000"
 preserveAspectRatio="xMidYMid meet">
<metadata>
Created by potrace 1.11, written by Peter Selinger 2001-2013
</metadata>
<g transform="translate(0.000000,240.000000) scale(0.100000,-0.100000)"
fill="#000000" stroke="none">
<path d="M423 1844 c-63 -31 -64 -37 -61 -508 l3 -426 33 -32 c31 -32 35 -33
127 -36 l95 -4 0 -154 c0 -85 3 -154 6 -154 3 0 48 43 99 95 l94 95 329 0 328
0 162 -162 162 -162 0 162 0 162 88 0 c94 0 132 15 158 62 19 33 19 783 0 816
-27 50 -62 62 -178 62 l-108 0 0 51 c0 28 -7 66 -16 84 -31 66 -16 65 -686 65
-527 0 -607 -2 -635 -16z m1278 -53 c18 -22 19 -45 19 -442 l0 -418 -25 -26
-26 -25 -375 0 -375 0 -124 -125 c-68 -69 -127 -125 -130 -125 -3 0 -5 56 -5
125 l0 125 -95 0 c-106 0 -148 14 -159 52 -3 13 -6 206 -6 430 l0 407 26 26
25 25 616 -2 615 -3 19 -24z"/>
<path d="M725 1395 c-16 -15 -25 -36 -25 -55 0 -19 9 -40 25 -55 15 -16 36
-25 55 -25 19 0 40 9 55 25 16 15 25 36 25 55 0 19 -9 40 -25 55 -15 16 -36
25 -55 25 -19 0 -40 -9 -55 -25z"/>
<path d="M1005 1395 c-16 -15 -25 -36 -25 -55 0 -19 9 -40 25 -55 15 -16 36
-25 55 -25 19 0 40 9 55 25 16 15 25 36 25 55 0 19 -9 40 -25 55 -15 16 -36
25 -55 25 -19 0 -40 -9 -55 -25z"/>
<path d="M1285 1395 c-50 -49 -15 -135 55 -135 19 0 40 9 55 25 16 15 25 36
25 55 0 19 -9 40 -25 55 -15 16 -36 25 -55 25 -19 0 -40 -9 -55 -25z"/>
</g>
</svg>
