<?xml version="1.0" standalone="no"?>
<!DOCTYPE svg PUBLIC "-//W3C//DTD SVG 20010904//EN"
 "http://www.w3.org/TR/2001/REC-SVG-20010904/DTD/svg10.dtd">
<svg version="1.0" xmlns="http://www.w3.org/2000/svg"
 width="300.000000pt" height="300.000000pt" viewBox="0 0 300.000000 300.000000"
 preserveAspectRatio="xMidYMid meet">
<metadata>
Created by potrace 1.11, written by Peter Selinger 2001-2013
</metadata>
<g transform="translate(0.000000,300.000000) scale(0.100000,-0.100000)"
fill="#000000" stroke="none">
<path d="M1415 2459 c-290 -32 -554 -218 -685 -484 -135 -275 -114 -613 53
-861 29 -43 56 -83 62 -90 6 -9 -3 -65 -28 -171 -20 -87 -37 -162 -37 -166 0
-4 9 -3 20 3 11 6 84 37 161 70 l140 58 62 -28 c222 -103 507 -98 734 12 199
96 354 264 437 472 46 115 58 194 53 351 -3 125 -7 150 -37 237 -132 395 -521
643 -935 597z m-25 -593 c0 -2 -12 -29 -26 -60 -35 -77 -51 -211 -34 -290 11
-56 44 -106 70 -106 21 0 49 40 65 92 13 45 14 64 3 124 -8 49 -9 90 -2 130
l9 59 43 3 c23 2 42 1 42 -1 0 -2 5 -29 11 -61 7 -42 7 -77 -2 -130 -9 -62 -9
-81 5 -128 40 -138 119 -102 133 60 7 85 -11 201 -41 263 l-23 49 47 0 c46 0
47 -1 68 -47 56 -127 55 -288 -4 -404 -28 -56 -61 -79 -112 -79 -52 0 -86 28
-111 93 -11 28 -20 43 -20 33 -1 -27 -48 -104 -71 -116 -32 -17 -95 -12 -124
11 -93 73 -109 292 -35 467 18 41 20 42 64 42 25 0 45 -2 45 -4z m-330 -130
c68 -45 98 -144 66 -219 -20 -48 -71 -95 -118 -107 -135 -37 -264 87 -228 220
14 51 72 117 114 130 48 15 124 4 166 -24z m1077 23 c44 -16 102 -79 114 -123
34 -127 -77 -251 -206 -232 -61 10 -128 72 -145 134 -37 142 102 272 237 221z"/>
<path d="M2395 978 c-16 -24 -22 -38 -14 -31 15 12 53 73 46 73 -2 0 -17 -19
-32 -42z"/>
<path d="M619 995 c17 -33 31 -51 31 -40 0 6 -10 21 -21 35 -13 17 -17 18 -10
5z"/>
<path d="M2306 867 c-106 -117 -284 -236 -432 -288 -225 -79 -496 -77 -719 5
l-70 25 -278 -117 c-152 -64 -273 -118 -268 -120 5 -2 129 48 275 109 l267
112 82 -27 c130 -42 212 -56 348 -56 341 0 603 122 838 393 49 55 13 25 -43
-36z"/>
</g>
</svg>
